<svg width="242" height="200" xmlns="http://www.w3.org/2000/svg"><g fill="none" fill-rule="evenodd"><path d="M76 2.13h102v102H76z"/><path d="M110.027 18.232l-21.714 62.53-24.814-11.724 21.714-62.53 24.814 11.724zm50.316 28.534l-25.106 61.218-25.864-10.608 25.106-61.218 25.864 10.608z" fill="#7C5DFA" fill-rule="nonzero"/><path d="M125.867 52.348l16.29 4.364-28.528 20.304-4.887-18.232 17.125-6.436z" fill="#9277FF" fill-rule="nonzero"/><path d="M63.633 13.914l-4.542 16.945-16.946-4.542L46.688 9.37l16.945 4.544zM45.688 23.37l-4.542 16.945-16.946-4.542 4.543-16.945 16.945 4.544zM32.688 6.37l-4.542 16.945-16.946-4.542L15.743 1.828l16.945 4.544z" fill="#DFE3FA" fill-rule="nonzero"/><path d="M51.146 36.314l-2.27 8.473-8.474-2.27 2.272-8.473 8.472 2.27zm-14-16l-2.27 8.473-8.474-2.27 2.272-8.473 8.472 2.27zm-10-18l-2.27 8.473-8.474-2.27 2.272-8.473 8.472 2.27z" fill="#888EB0" fill-rule="nonzero"/><path d="M196.223 162.77c0 8.04-6.518 14.558-14.558 14.558-8.04 0-14.558-6.518-14.558-14.558 0-8.04 6.518-14.558 14.558-14.558 8.04 0 14.558 6.518 14.558 14.558z" fill="#DFE3FA" fill-rule="nonzero"/><path d="M189.664 162.77c0 4.417-3.58 8-8 8s-8-3.583-8-8 3.58-8 8-8 8 3.583 8 8z" fill="#888EB0" fill-rule="nonzero"/><path d="M84.223 151.77c0 8.04-6.518 14.558-14.558 14.558-8.04 0-14.558-6.518-14.558-14.558 0-8.04 6.518-14.558 14.558-14.558 8.04 0 14.558 6.518 14.558 14.558z" fill="#DFE3FA" fill-rule="nonzero"/><path d="M77.664 151.77c0 4.417-3.58 8-8 8s-8-3.583-8-8 3.58-8 8-8 8 3.583 8 8z" fill="#888EB0" fill-rule="nonzero"/><path d="M125.688 84.37l-4.542 16.945-16.946-4.542 4.543-16.945 16.945 4.544z" fill="#DFE3FA" fill-rule="nonzero"/><path d="M117.146 92.314l-2.27 8.473-8.474-2.27 2.272-8.473 8.472 2.27z" fill="#888EB0" fill-rule="nonzero"/><path d="M136.315 158.337l-16.946-4.542 11.353-42.364 16.946 4.542-11.353 42.364z" fill="#DFE3FA" fill-rule="nonzero"/><path d="M152 79.13h7v40h-7z" fill="#DFE3FA" fill-rule="nonzero"/><path d="M211 59.13h12v36h-12z" fill="#DFE3FA" fill-rule="nonzero"/><path d="M174 41.13h7v17h-7z" fill="#DFE3FA" fill-rule="nonzero"/><path d="M134 115.13h86v82h-86z" fill="#FFF" fill-rule="nonzero"/><path d="M141.487 141.656h71.026v5h-71.026z" fill="#DFE3FA" fill-rule="nonzero"/><path d="M141.487 156.656h56.026v5h-56.026z" fill="#DFE3FA" fill-rule="nonzero"/><path d="M141.487 171.656h26.026v5h-26.026z" fill="#DFE3FA" fill-rule="nonzero"/><path d="M141.487 126.656h36.026v5h-36.026z" fill="#DFE3FA" fill-rule="nonzero"/><path d="M188 126.13h24v5h-24zM172 171.13h40v5h-40z" fill="#888EB0" fill-rule="nonzero"/></g></svg>
